<?xml version="1.0" encoding="utf-8"?>
<!-- Generator: Adobe Illustrator 16.0.0, SVG Export Plug-In . SVG Version: 6.00 Build 0)  -->
<!DOCTYPE svg PUBLIC "-//W3C//DTD SVG 1.1//EN" "http://www.w3.org/Graphics/SVG/1.1/DTD/svg11.dtd">
<svg version="1.1" id="Calque_1" xmlns="http://www.w3.org/2000/svg" xmlns:xlink="http://www.w3.org/1999/xlink" x="0px" y="0px"
	 width="150px" height="40px" viewBox="0 0 150 40" enable-background="new 0 0 150 40" xml:space="preserve">
<g>
	<g>
		<rect y="18.532" fill="#FFFFFF" width="150" height="0.645"/>
	</g>
	<path fill="#FFFFFF" d="M1.947,21.888c1.469,0.02,2.963,1.826,3.408,2.884c0.145,0.344,0.325,1.128,0.175,1.66
		c-0.233,0.824-0.892,1.597-1.224,2.358c-0.68,1.566-0.832,3.14-0.874,5.418h0.175v-0.175c0.581-0.686,1.269-3.643,2.01-3.845
		c0.259,0.22,0.502,0.12,0.611,0.523c-0.254,0.374-0.202,0.908-0.349,1.398c-0.352,1.171-0.594,2.5-0.874,3.757
		c-0.109,0.491,0.013,1.306,0.087,1.66c0.14,0.665-0.147,1.216-0.262,1.66c-0.217,0.136-0.516,0.342-0.699,0.524H3.083
		c-3.357-3.24-1.708-10.292-0.699-14.766c0.302-1.341-0.617-2.058-0.611-2.796C1.914,22.033,1.871,22.095,1.947,21.888"/>
	<path fill="#FFFFFF" d="M14.878,23.811c1.523-0.015,2.795,1.031,2.446,2.621c-1.244,0.745-3.214,0.817-4.63,1.397
		c-0.85,0.349-2.18,1.237-2.971,1.398c-0.15-0.251-0.333-0.4-0.437-0.699c0.495-0.437,0.99-0.874,1.485-1.311V27.13
		c-1.482-0.067-3.029-1.027-3.407-2.184c0.267-0.179,0.363-0.405,0.699-0.524C9.187,25.933,13.893,24.635,14.878,23.811"/>
	<path fill="#FFFFFF" d="M7.801,31.325c0.354,0.024,0.734,0.093,0.874,0.35c-0.363,0.577-0.016,2.065,0.174,2.446
		c0.751,1.503,3.102,2.151,5.504,1.572c0.596-0.144,1.33-0.703,2.097-0.523c0.966,0.226,1.337,0.891,1.922,1.485
		c0.044,0.438,0.152,0.813-0.087,1.135c-0.379,1.1-4.546,1.349-6.204,0.962c-2.789-0.652-4.073-1.166-4.718-4.02
		c-0.126-0.555-0.158-1.494,0-2.097C7.51,32.199,7.655,31.761,7.801,31.325"/>
	<path fill="#FFFFFF" d="M21.653,21.676c1.619,0.017,4.205,2.79,3.582,4.631c-0.247,0.73-0.911,1.383-1.223,2.097
		c-0.713,1.635-1.089,3.532-0.961,5.767h0.087v-0.175c0.495-1.02,0.99-2.038,1.485-3.058c0.237-0.459,0.108-0.907,0.787-0.961
		c0.196,0.147,0.393,0.116,0.524,0.349c-0.353,0.521-0.311,1.263-0.524,1.923c-0.428,1.318-0.72,2.813-1.048,4.281
		c0.029,0.786,0.058,1.572,0.087,2.358c-0.137,0.482-0.486,0.734-0.786,1.049c-0.439,0.044-0.813,0.152-1.136-0.088
		c-1.267-0.411-1.247-2.02-1.573-3.407c-0.934-3.977,0.368-8.311,1.136-11.532c0.323-1.351-0.436-1.924-0.611-2.884
		C21.588,21.907,21.598,21.872,21.653,21.676"/>
	<path fill="#FFFFFF" d="M34.933,34.17c0.008-0.541,0.068-1.545-0.175-1.922V30.85c0.988-0.214,2.075-0.526,2.796-1.048
		c0.296-0.214,0.445-0.615,0.699-0.874c-0.007-0.899-0.356-0.982-0.699-1.485c-0.399-0.097-0.74-0.186-1.31-0.175
		c-0.374,0.388-0.919,0.592-1.311,0.961h-0.175c0.042-0.751,0.474-2.174-0.087-2.621c0.243-0.37,1.108-0.282,1.573-0.437
		c0.753-0.25,1.104-0.613,1.572-1.136c-0.076-0.92-0.997-1.88-2.097-1.66c-0.455,0.091-0.847,0.449-1.223,0.611
		c-1.03,0.443-3.985,1.25-5.592,0.874c-0.605-0.142-1.102-0.465-1.66-0.612c-0.117,0.237-0.235,0.459-0.437,0.612
		c0.268,0.736,1.546,1.365,2.271,1.66c0.341,0.139,0.763,0.083,1.048,0.262c0.687-0.007,1.646-0.095,2.184,0.088
		c0.029,1.048,0.059,2.097,0.087,3.146c-1.95,0.073-3.815,0.292-4.194-1.485c-0.238,0.002-0.4,0.003-0.524,0.087h-0.35
		c0.516,2.924,1.542,3.642,4.98,3.582v2.534c-2.277-0.045-3.955,0.37-4.893,1.66c-0.522,0.719-0.889,1.997-0.262,2.971
		c1.177,1.825,5.424,1.881,7.165,0.524c0.424-0.331,0.666-1.124,0.786-1.748c0.906,0.458,1.737,1.32,2.446,2.01h0.612
		c0.204-0.175,0.408-0.35,0.611-0.524C39.461,35.838,37.121,34.608,34.933,34.17 M28.293,37.316
		c-0.056-0.151-0.017-0.086-0.087-0.175c0.06-1.298,1.239-0.818,2.097-1.311c0.611,0.058,1.223,0.116,1.834,0.175v0.088h0.087
		C32.222,38.072,29.616,38.016,28.293,37.316"/>
	<path fill="#FFFFFF" d="M59.596,30.914c0.41,0.011,0.557,0.098,0.874,0.175v0.524c-0.363,0.574-0.482,2.247-0.787,2.971
		c-0.927,2.203-2.223,3.884-4.456,4.805c-1.203,0.497-3.064,0.577-4.106-0.174c-0.912-0.657-1.028-1.837-1.311-3.146
		c-0.282-1.305,0.292-3.126-0.786-3.582c-0.812-0.687-2.061,0.401-2.446,0.786c-0.764,0.763-1.469,1.833-1.922,2.883
		c-0.321,0.961-0.641,1.923-0.961,2.884c-0.157,0.247-0.498,0.4-0.699,0.611c-0.349-0.029-0.699-0.058-1.048-0.088
		c-0.657-0.368-1.357-2.242-0.961-3.319c0.325-0.883,1.404-1.958,1.922-2.796c1.254-2.032,2.248-4.22,3.233-6.466
		c0.554-1.263,1.393-2.542,1.311-4.193c-0.165-0.117-0.2-0.322-0.35-0.437c-0.129-0.1-1.014-0.465-1.048-0.524v-0.699h0.175
		c0.509-0.409,1.637-0.087,2.097,0.087c1.386,0.522,3.099,1.037,3.058,2.971c-1.748,1.866-3.37,4.886-4.718,7.164h0.175
		c0.391-0.367,0.853-0.366,1.485-0.523c2.357-0.588,3.579,1.207,4.02,2.883c0.248,0.942,0.013,2.402,0.786,2.796
		c0.71,0.62,2.095-0.238,2.534-0.524C57.188,34.987,59.298,33.036,59.596,30.914"/>
	<path fill="#FFFFFF" d="M80.452,21.19c1.715-0.054,4.247,0.703,4.63,1.835c0.537,0.701-0.301,1.758-0.349,2.621
		c-0.144,2.551-0.398,5.132-0.438,7.863h0.175c0.62-0.568,1.637-0.77,2.359-1.224c1.802-1.133,4.461-2.957,5.591-4.718
		c0.153,0.055,0.085,0.017,0.176,0.088c0.262,0.084,0.447,0.256,0.611,0.437c-0.688,0.737-1.137,2.12-1.747,2.971
		c-1.445,2.01-3.555,3.638-5.593,5.067c-0.721,0.506-1.279,1.483-2.358,1.572c-0.971-0.702-1.737-1.006-2.097-2.358
		c-0.202-0.76,0.32-1.954,0.349-2.796c0.108-3.182,0.241-7.045-0.349-9.698c-0.263-0.157-1.234-0.681-1.311-0.961
		c-0.07-0.104-0.067-0.147-0.088-0.35C80.168,21.445,80.331,21.32,80.452,21.19"/>
	<path fill="#FFFFFF" d="M75.733,24.248c1.797-0.059,3.052,0.61,3.932,1.485c0.282,0.28,0.815,0.668,0.611,1.398
		c-0.097,0.349-0.405,0.704-0.523,1.049c-0.175,0.728-0.35,1.456-0.524,2.184c-0.911,2.725-2.194,5.088-4.281,6.641
		c-0.659,0.489-1.303,1.341-2.271,1.485c-0.157-0.248-0.333-0.383-0.437-0.699c0.893-0.605,1.345-1.6,1.922-2.533
		c1.318-2.133,2.915-5.821,2.534-9.262c-0.447-0.341-0.711-0.626-1.31-0.874c-0.029-0.204-0.059-0.408-0.088-0.611
		C75.456,24.437,75.616,24.363,75.733,24.248"/>
	<path fill="#FFFFFF" d="M94.562,27.924c0.109,0.049,0.264,0.105,0.35,0.175c0.611,0.28,0.486,1.209,1.485,1.485
		c1.165,0.029,2.33,0.059,3.494,0.088c3.591,0,10.535-0.736,12.844,0.698c0.063,0.309,0.095,0.713,0.087,1.136
		c-0.225,0.213-0.404,0.564-0.698,0.699c-0.893,0.408-1.912,0.103-3.058,0.35c-0.757,0.163-1.895,0.087-2.797,0.087h-5.154
		c-1.604,0-3.629-0.193-4.543,0.524c-1.939,0.036-2.598-2.532-2.534-4.543C94.217,28.415,94.412,28.139,94.562,27.924"/>
	<path fill="#FFFFFF" d="M122.37,27.983c-0.177,0.039-0.302,0.182-0.328,0.36c-0.104,0.707-0.436,1.413-0.669,1.969
		c-1.286,3.053-2.117,4.981-4.631,6.815c-0.328,0.239-0.626,0.64-0.961,0.874c-0.389,0.271-0.807,0.362-1.224,0.611
		c-0.189,0.113-0.582,0.521-0.786,0.35c-0.236-0.155-0.381-0.367-0.524-0.612c2.359-1.59,3.824-4.754,4.806-7.775
		c0.311-0.956,0.723-2.148,0.555-3.391c-0.017-0.121-0.091-0.229-0.192-0.296c-0.006-0.004-0.011-0.008-0.017-0.011
		c0.296-0.776,0.241-0.633,0.538-1.408c0.614,0.102,1.204,0.365,1.737,0.649c0.242,0.13,1.051,0.617,1.136,0.524
		c0.854-0.498,3.174-2.409,3.494-3.32h0.088v-0.087h-1.271c-1.443,0.217-2.862,0.43-4.306,0.646c-1.128,0.32-2.36,0.49-3.423,0.926
		c-0.621,0.255-1.215,0.713-1.922,0.874c-1.536,0.349-2.985-2.337-3.233-3.495c-0.054-0.252,0.018-0.473,0.088-0.678
		c0.059-0.169,0.217-0.283,0.396-0.283h0.391c0.473,1.463,3.083,1.451,4.893,1.049c2.094-0.467,4.381-0.291,6.553-0.787
		c0.653-0.149,2.071-0.724,2.796-0.524c1.098,0.304,2.956,2.125,3.133,3.578c0.011,0.096-0.011,0.194-0.063,0.275
		c-0.091,0.144-0.15,0.334-0.274,0.428c-0.568,0.43-1.615,0.498-2.271,0.787C125.502,26.634,123.98,27.631,122.37,27.983"/>
	<path fill="#FFFFFF" d="M131.63,23.647c0.071-0.146,0.217-0.241,0.38-0.236c2.601,0.087,7.245,1.501,6.023,4.714
		c-0.173,0.454-0.514,0.663-0.842,0.942c-0.078,0.066-0.179,0.107-0.281,0.106c-0.261-0.003-0.501-0.023-0.711-0.057
		c-0.114-0.018-0.211-0.085-0.274-0.182c-0.829-1.259-1.713-2.589-2.785-3.606c-0.377-0.358-1.094-0.618-1.511-1.01
		c-0.145-0.136-0.177-0.349-0.078-0.521C131.58,23.75,131.605,23.699,131.63,23.647"/>
	<path fill="#FFFFFF" d="M148.495,24.541c0.186,0.069,0.33,0.174,0.406,0.367c0.053,0.135,0.012,0.285-0.074,0.401
		c-0.32,0.438-0.452,1.022-0.746,1.505c-0.56,0.919-1.196,1.839-1.834,2.709c-1.997,2.721-4.809,4.783-7.602,6.727
		c-0.497,0.347-1.056,0.679-1.572,1.049c-0.769,0.551-0.819,1.249-2.115,1.307c-0.099,0.005-0.199-0.03-0.277-0.091
		c-1.521-1.197-3.13-2.229-2.938-4.886c0.095-0.079,0.008,0.007,0.088-0.087c0.203-0.029,0.407-0.059,0.611-0.088
		c0.321,0.655,0.78,0.931,1.266,1.364c0.085,0.076,0.197,0.121,0.311,0.114c1.709-0.109,3.127-1.363,4.277-2.09
		c1.573-0.993,2.992-1.974,4.456-3.058c0.811-0.601,1.473-1.492,2.271-2.097c1.055-0.799,2.217-1.863,2.983-2.986
		C148.116,24.542,148.314,24.474,148.495,24.541"/>
	<path fill="#FFFFFF" d="M0.016,0.329h4.982c0.869,0,1.63,0.093,2.284,0.28c0.654,0.187,1.2,0.447,1.638,0.78
		C9.359,1.722,9.688,2.12,9.907,2.583s0.329,0.966,0.329,1.51c0,0.447-0.085,0.865-0.256,1.255c-0.17,0.39-0.412,0.741-0.725,1.054
		C8.942,6.714,8.569,6.986,8.134,7.218C7.7,7.449,7.223,7.625,6.703,7.748l5.25,7.004H9.14L4.133,7.967H2.439v6.785H0.016V0.329z
		 M2.439,7.248h1.389c0.544,0,1.047-0.071,1.51-0.213s0.863-0.347,1.2-0.615C6.876,6.152,7.14,5.827,7.331,5.445
		s0.286-0.808,0.286-1.279c0-0.43-0.075-0.824-0.225-1.182C7.241,2.627,7.032,2.319,6.764,2.059C6.496,1.799,6.175,1.596,5.802,1.45
		C5.428,1.304,5.018,1.23,4.571,1.23H2.439V7.248z"/>
	<path fill="#FFFFFF" d="M20.505,15.093c-0.747,0-1.462-0.091-2.144-0.274c-0.682-0.183-1.317-0.44-1.906-0.774
		c-0.589-0.333-1.125-0.73-1.608-1.193c-0.483-0.463-0.894-0.979-1.23-1.547c-0.337-0.569-0.599-1.177-0.786-1.828
		c-0.187-0.649-0.28-1.323-0.28-2.022c0-0.69,0.093-1.352,0.28-1.985c0.187-0.634,0.449-1.227,0.786-1.778
		c0.337-0.553,0.747-1.056,1.23-1.511c0.483-0.455,1.019-0.842,1.608-1.164c0.589-0.321,1.224-0.57,1.906-0.749S19.758,0,20.505,0
		c1.121,0,2.164,0.195,3.131,0.585c0.966,0.39,1.805,0.922,2.516,1.596c0.71,0.674,1.271,1.464,1.681,2.369
		c0.41,0.906,0.615,1.874,0.615,2.905c0,0.699-0.093,1.373-0.28,2.022c-0.187,0.65-0.449,1.259-0.786,1.828
		c-0.337,0.568-0.745,1.084-1.224,1.547c-0.479,0.463-1.013,0.861-1.602,1.193c-0.589,0.333-1.224,0.591-1.906,0.774
		C21.967,15.002,21.252,15.093,20.505,15.093 M20.505,14.374c0.82,0,1.547-0.172,2.181-0.518c0.633-0.345,1.167-0.826,1.602-1.443
		c0.435-0.617,0.764-1.348,0.987-2.192c0.223-0.845,0.335-1.767,0.335-2.766c0-0.991-0.112-1.898-0.335-2.723
		c-0.223-0.824-0.552-1.535-0.987-2.131c-0.434-0.597-0.968-1.062-1.602-1.395c-0.634-0.333-1.36-0.5-2.181-0.5
		c-0.845,0-1.586,0.167-2.223,0.5c-0.638,0.333-1.171,0.798-1.602,1.395c-0.431,0.597-0.753,1.308-0.968,2.131
		c-0.215,0.825-0.323,1.732-0.323,2.723c0,0.999,0.107,1.921,0.323,2.766c0.215,0.844,0.538,1.575,0.968,2.192
		s0.964,1.099,1.602,1.443C18.919,14.202,19.66,14.374,20.505,14.374"/>
	<path fill="#FFFFFF" d="M31.188,0.329h2.424v9.355c0,0.617,0.106,1.198,0.317,1.742c0.211,0.544,0.514,1.02,0.908,1.425
		c0.394,0.406,0.867,0.727,1.419,0.962c0.553,0.236,1.17,0.354,1.852,0.354c0.69,0,1.312-0.118,1.864-0.354
		c0.552-0.235,1.021-0.556,1.407-0.962c0.386-0.406,0.682-0.881,0.889-1.425c0.207-0.544,0.311-1.125,0.311-1.742V0.329h1.072v9.355
		c0,0.739-0.12,1.436-0.359,2.089c-0.24,0.654-0.613,1.227-1.121,1.718c-0.508,0.492-1.16,0.881-1.955,1.169
		c-0.796,0.288-1.754,0.432-2.875,0.432c-0.999,0-1.882-0.144-2.649-0.432s-1.409-0.68-1.925-1.176
		c-0.516-0.495-0.908-1.074-1.175-1.735c-0.268-0.662-0.402-1.367-0.402-2.114V0.329z"/>
	<polygon fill="#FFFFFF" points="57.049,0.329 57.049,1.255 49.448,1.255 49.448,6.42 54.528,6.42 54.528,7.346 49.448,7.346 
		49.448,13.826 57.049,13.826 57.049,14.752 47.024,14.752 47.024,0.329 	"/>
	<polygon fill="#FFFFFF" points="59.742,0.329 61.094,0.329 70.546,10.866 70.644,10.866 70.644,0.329 71.704,0.329 71.704,15.093 
		71.144,15.093 60.911,3.362 60.826,3.362 60.826,14.752 59.742,14.752 	"/>
	<path fill="#FFFFFF" d="M88.051,10.623c0,0.528-0.047,1.045-0.141,1.553c-0.093,0.507-0.286,0.964-0.578,1.37
		c-0.292,0.406-0.709,0.733-1.249,0.98c-0.54,0.248-1.252,0.372-2.138,0.372c-0.504,0-0.954-0.046-1.353-0.14
		c-0.397-0.094-0.761-0.215-1.09-0.366s-0.625-0.319-0.889-0.505c-0.265-0.187-0.51-0.374-0.737-0.561l0.768-1.023
		c0.154,0.13,0.345,0.291,0.572,0.481c0.228,0.191,0.474,0.376,0.737,0.554c0.264,0.179,0.54,0.333,0.828,0.463
		s0.574,0.195,0.858,0.195c0.634,0,1.123-0.168,1.468-0.505c0.346-0.337,0.519-0.786,0.519-1.346V0.329h2.424V10.623z"/>
	<path fill="#FFFFFF" d="M97.456,0l6.785,14.752h-2.461L99.576,9.94h-6.177l-2.278,4.812h-1.218L96.859,0H97.456z M93.825,9.002
		h5.312l-2.619-5.701L93.825,9.002z"/>
	<path fill="#FFFFFF" d="M106.117,0.329h4.567c0.756,0,1.463,0.091,2.12,0.274c0.658,0.183,1.23,0.449,1.718,0.798
		c0.487,0.35,0.871,0.78,1.151,1.292c0.279,0.511,0.42,1.096,0.42,1.754s-0.136,1.23-0.408,1.718
		c-0.272,0.487-0.632,0.889-1.078,1.206c-0.446,0.317-0.952,0.555-1.517,0.713s-1.144,0.237-1.736,0.237
		c-0.251,0-0.516-0.006-0.792-0.018c-0.275-0.012-0.541-0.03-0.797-0.055s-0.492-0.051-0.707-0.08
		c-0.216-0.028-0.388-0.059-0.518-0.091v6.675h-2.424V0.329z M108.541,7.26c0.268,0.073,0.558,0.146,0.871,0.219
		c0.313,0.073,0.631,0.11,0.956,0.11c0.52,0,0.977-0.079,1.371-0.238c0.394-0.158,0.718-0.372,0.974-0.64
		c0.256-0.268,0.449-0.584,0.579-0.95c0.13-0.365,0.195-0.755,0.195-1.169c0-0.487-0.084-0.928-0.251-1.322
		c-0.166-0.394-0.395-0.729-0.688-1.005c-0.293-0.276-0.635-0.489-1.029-0.64c-0.394-0.15-0.814-0.226-1.261-0.226h-1.718V7.26z"/>
	<path fill="#FFFFFF" d="M125.558,15.093c-0.747,0-1.462-0.091-2.144-0.274c-0.683-0.183-1.318-0.44-1.907-0.774
		c-0.589-0.333-1.125-0.73-1.607-1.193c-0.483-0.463-0.894-0.979-1.23-1.547c-0.338-0.569-0.599-1.177-0.786-1.828
		c-0.187-0.649-0.28-1.323-0.28-2.022c0-0.69,0.094-1.352,0.28-1.985c0.188-0.634,0.448-1.227,0.786-1.778
		c0.337-0.553,0.747-1.056,1.23-1.511c0.482-0.455,1.019-0.842,1.607-1.164c0.589-0.321,1.225-0.57,1.907-0.749
		C124.096,0.089,124.811,0,125.558,0c1.121,0,2.164,0.195,3.131,0.585c0.966,0.39,1.805,0.922,2.516,1.596
		c0.71,0.674,1.271,1.464,1.681,2.369c0.41,0.906,0.615,1.874,0.615,2.905c0,0.699-0.094,1.373-0.28,2.022
		c-0.187,0.65-0.448,1.259-0.785,1.828c-0.338,0.568-0.746,1.084-1.225,1.547c-0.479,0.463-1.013,0.861-1.603,1.193
		c-0.589,0.333-1.224,0.591-1.906,0.774C127.02,15.002,126.305,15.093,125.558,15.093 M125.558,14.374
		c0.82,0,1.547-0.172,2.181-0.518c0.633-0.345,1.167-0.826,1.602-1.443s0.764-1.348,0.987-2.192
		c0.223-0.845,0.335-1.767,0.335-2.766c0-0.991-0.112-1.898-0.335-2.723c-0.224-0.824-0.553-1.535-0.987-2.131
		c-0.435-0.597-0.969-1.062-1.602-1.395c-0.634-0.333-1.36-0.5-2.181-0.5c-0.845,0-1.586,0.167-2.224,0.5s-1.171,0.798-1.602,1.395
		c-0.431,0.597-0.753,1.308-0.968,2.131c-0.216,0.825-0.323,1.732-0.323,2.723c0,0.999,0.107,1.921,0.323,2.766
		c0.215,0.844,0.537,1.575,0.968,2.192s0.964,1.099,1.602,1.443C123.972,14.202,124.713,14.374,125.558,14.374"/>
	<polygon fill="#FFFFFF" points="136.509,0.329 137.862,0.329 147.314,10.866 147.412,10.866 147.412,0.329 148.471,0.329 
		148.471,15.093 147.911,15.093 137.679,3.362 137.593,3.362 137.593,14.752 136.509,14.752 	"/>
</g>
</svg>
