<?xml version="1.0" encoding="utf-8"?>
<!-- Generator: Adobe Illustrator 16.0.0, SVG Export Plug-In . SVG Version: 6.00 Build 0)  -->
<!DOCTYPE svg PUBLIC "-//W3C//DTD SVG 1.1//EN" "http://www.w3.org/Graphics/SVG/1.1/DTD/svg11.dtd">
<svg version="1.1" id="Calque_1" xmlns="http://www.w3.org/2000/svg" xmlns:xlink="http://www.w3.org/1999/xlink" x="0px" y="0px"
	 width="49.844px" height="20px" viewBox="0 0 49.844 20" enable-background="new 0 0 49.844 20" xml:space="preserve">
<g>
	<defs>
		<rect id="SVGID_1_" width="49.844" height="20"/>
	</defs>
	<clipPath id="SVGID_2_">
		<use xlink:href="#SVGID_1_"  overflow="visible"/>
	</clipPath>
	<path clip-path="url(#SVGID_2_)" fill="#E30613" d="M30.654,19.349c-0.563-0.688-2.002-2.53-2.43-3.998
		c-0.539-1.838-0.563-3.271-0.563-3.271h0.244v-0.789h-0.317c0,0-0.317-2.952-0.393-3.955c-0.075-1.005-0.146-1.713-0.146-1.713
		l0.121-0.191V4.877L27.1,4.66V4.105l0.117-0.151V3.358l-0.302-0.267L26.71,0h-0.13l-0.205,3.092l-0.305,0.267v0.596l0.121,0.151
		V4.66l-0.07,0.217v0.554l0.122,0.191c0,0-0.073,0.708-0.147,1.713c-0.071,1.004-0.391,3.955-0.391,3.955h-0.32v0.789h0.243
		c0,0-0.021,1.436-0.56,3.271c-0.435,1.468-1.865,3.309-2.432,3.998h-1.289v0.563h10.594v-0.563
		C31.943,19.349,30.654,19.349,30.654,19.349 M26.964,13.161h0.276c0.011,0.078,0.024,0.189,0.046,0.322h-0.322V13.161z
		 M26.964,13.775h0.362c0.029,0.188,0.06,0.396,0.095,0.607h-0.457V13.775z M26.964,14.677h0.505
		c0.034,0.211,0.072,0.42,0.107,0.604h-0.612V14.677z M26.964,15.574h0.676c0.003,0.009,0.006,0.019,0.006,0.023
		c0.048,0.201,0.101,0.4,0.15,0.585h-0.832V15.574z M26.964,16.475h0.922c0.12,0.373,0.218,0.63,0.218,0.63
		s-0.366-0.177-0.626-0.224c-0.255-0.049-0.514-0.066-0.514-0.066V16.475z M26.051,13.161h0.273v0.322h-0.319
		C26.023,13.348,26.042,13.239,26.051,13.161 M25.963,13.775h0.361v0.607h-0.457C25.903,14.172,25.936,13.963,25.963,13.775
		 M25.821,14.677h0.505v0.604h-0.614C25.75,15.096,25.787,14.887,25.821,14.677 M25.648,15.597c0.001-0.006,0.001-0.016,0.003-0.023
		h0.675v0.608h-0.835C25.546,15.999,25.599,15.799,25.648,15.597 M25.403,16.475h0.924v0.34c0,0-0.259,0.019-0.518,0.066
		c-0.255,0.047-0.619,0.224-0.619,0.224S25.284,16.848,25.403,16.475 M26.377,17.301v2.049h-2.994
		C23.855,18.728,24.986,17.459,26.377,17.301 M26.911,19.349V17.3c1.392,0.158,2.522,1.428,2.998,2.049H26.911z"/>
	<path clip-path="url(#SVGID_2_)" fill="#E30613" d="M40.076,7.316V7.314h-0.081h-0.029c-7.739,0-9.771-0.851-9.771-0.851
		l0.587,1.334c0,0,0.121,0.025,0.472,0.066v0.528c0,0,0.563,0.178,2.817,0.306v0.352h0.314l-0.016,0.73h-0.545v0.26h-2.376v1.105
		h2.887l-0.229,7.42c-0.354,0.07-0.62,0.388-0.62,0.765v0.019h-1.848v0.512h6.932v-0.512h-1.76v-0.019
		c0-0.377-0.267-0.692-0.617-0.765l-0.234-7.418h4.008v0.002h4.116l-0.232,7.417c-0.354,0.069-0.62,0.388-0.62,0.765v0.02h-1.757
		v0.511h6.934v-0.511h-1.85v-0.02c0-0.377-0.268-0.691-0.62-0.765l-0.233-7.417h2.893v-1.107h-2.376V9.779h-0.548l-0.019-0.731
		h0.315v-0.35c2.252-0.13,2.817-0.308,2.817-0.308V7.863c0.35-0.041,0.471-0.066,0.471-0.066l0.588-1.334
		C49.846,6.463,47.814,7.314,40.076,7.316 M39.308,10.039h-2.834v-0.26h-0.55l-0.017-0.731h0.317V8.776
		c0.982,0.034,1.664,0.055,3.083,0.061V10.039z M44.115,9.779h-0.548v0.262h-2.835V8.837c1.417-0.006,2.103-0.027,3.081-0.061v0.271
		h0.319L44.115,9.779z"/>
	<path clip-path="url(#SVGID_2_)" fill="#E30613" d="M16.852,17.347c-2.564,0.098-3.914,1.043-4.98,2.496
		c-0.012,0.017-0.029,0.066,0.03,0.066h1.026c0.468,0,1.032-1.892,3.924-1.892c2.93,0,3.456,1.892,3.973,1.892h0.965
		c0.082,0,0.048-0.058,0.027-0.086C20.754,18.391,19.394,17.444,16.852,17.347"/>
	<path clip-path="url(#SVGID_2_)" fill="#E30613" d="M21.402,17.163c-0.016,0-0.029-0.021-0.029-0.047v-0.106
		c0-0.025-0.001-0.048-0.001-0.048s0.015-0.014,0.033-0.031c0,0,0.114-0.11,0.114-0.22c0-0.16-0.128-0.289-0.288-0.289
		c-0.16,0-0.289,0.129-0.289,0.289c0,0.109,0.113,0.22,0.113,0.22c0.019,0.018,0.034,0.031,0.034,0.031s-0.001,0.022-0.001,0.048
		v0.106c0,0.026-0.013,0.047-0.029,0.047c-0.016,0-0.029,0.021-0.029,0.047v0.35c0,0.042-0.022,0.032-0.034,0.021
		c-0.395-0.411-0.811-0.728-1.277-0.976c-0.012-0.007-0.035-0.013-0.035-0.039v-0.624c0-0.026-0.013-0.047-0.029-0.047
		c-0.017,0-0.03-0.022-0.03-0.049v-0.097c0-0.026,0.015-0.062,0.034-0.081c0,0,0.114-0.11,0.114-0.218
		c0-0.159-0.13-0.289-0.289-0.289c-0.16,0-0.289,0.13-0.289,0.289c0,0.107,0.113,0.218,0.113,0.218
		c0.019,0.02,0.034,0.055,0.034,0.081v0.097c0,0.026-0.013,0.049-0.029,0.049c-0.017,0-0.03,0.021-0.03,0.047v0.41
		c0,0.035-0.033,0.033-0.05,0.026c-0.637-0.256-1.368-0.405-2.218-0.452c-0.008-0.001-0.022-0.003-0.022-0.021v-0.586
		c0-0.025-0.013-0.046-0.029-0.046c-0.017,0-0.03-0.022-0.03-0.049V15.1c0-0.025,0.015-0.062,0.034-0.079
		c0,0,0.114-0.111,0.114-0.22c0-0.16-0.129-0.289-0.29-0.289c-0.159,0-0.289,0.129-0.289,0.289c0,0.108,0.114,0.22,0.114,0.22
		c0.019,0.018,0.034,0.054,0.034,0.079v0.123c0,0.026-0.013,0.049-0.03,0.049c-0.016,0-0.029,0.021-0.029,0.046v0.573
		c0,0.028-0.023,0.033-0.035,0.034c-0.852,0.048-1.585,0.198-2.222,0.456c-0.011,0.004-0.032,0.007-0.032-0.019v-0.422
		c0-0.026-0.013-0.047-0.03-0.047c-0.016,0-0.029-0.022-0.029-0.049v-0.097c0-0.026,0.015-0.062,0.034-0.081
		c0,0,0.113-0.11,0.113-0.218c0-0.159-0.129-0.289-0.289-0.289c-0.159,0-0.289,0.13-0.289,0.289c0,0.107,0.114,0.218,0.114,0.218
		c0.018,0.02,0.034,0.055,0.034,0.081v0.097c0,0.026-0.014,0.049-0.03,0.049s-0.029,0.021-0.029,0.047v0.616
		c0,0.029-0.015,0.031-0.023,0.035c-0.475,0.25-0.897,0.57-1.298,0.987c-0.008,0.009-0.025,0.017-0.025-0.015v-0.355
		c0-0.025-0.014-0.047-0.03-0.047s-0.029-0.021-0.029-0.047v-0.106c0-0.025-0.001-0.048-0.001-0.048s0.015-0.014,0.034-0.031
		c0,0,0.114-0.11,0.114-0.22c0-0.16-0.129-0.289-0.289-0.289c-0.16,0-0.289,0.129-0.289,0.289c0,0.109,0.114,0.22,0.114,0.22
		c0.019,0.018,0.034,0.031,0.034,0.031s-0.001,0.022-0.001,0.048v0.106c0,0.026-0.013,0.047-0.029,0.047s-0.03,0.021-0.03,0.047
		v0.859v0.971c0,0.04,0.03,0.021,0.045,0.005c0.11-0.123,0.222-0.238,0.334-0.348c0.007-0.007,0.022-0.021,0.022-0.042v-0.499
		c0-0.021,0.01-0.031,0.016-0.038c0.402-0.472,0.829-0.844,1.312-1.126c0.006-0.004,0.019-0.011,0.019,0.012v0.656
		c0,0.044,0.031,0.021,0.047,0.015c0.106-0.049,0.214-0.096,0.325-0.139c0.01-0.004,0.028-0.01,0.028-0.038v-0.7
		c0-0.019,0.02-0.031,0.03-0.035c0.632-0.28,1.357-0.435,2.226-0.483c0.011,0,0.033,0.003,0.033,0.028v0.746
		c0,0.023,0.025,0.02,0.038,0.019c0.051-0.003,0.103-0.005,0.155-0.007h0.007h0.008c0.053,0.002,0.105,0.004,0.157,0.007
		c0.012,0.001,0.036,0.002,0.036-0.021V16.3c0-0.021,0.016-0.021,0.025-0.021c0.865,0.049,1.587,0.202,2.218,0.479
		c0.016,0.007,0.047,0.031,0.047,0.057v0.668c0,0.03,0.021,0.032,0.031,0.037c0.117,0.045,0.23,0.092,0.342,0.143
		c0.009,0.004,0.028,0.012,0.028-0.018V17.01c0-0.021,0.024-0.011,0.036-0.004c0.469,0.278,0.887,0.643,1.278,1.103
		c0.011,0.013,0.032,0.025,0.032,0.077v0.348c0,0.037,0.021,0.055,0.032,0.065c0.113,0.103,0.215,0.203,0.324,0.319
		c0.012,0.014,0.044,0.016,0.044-0.023v-1.686C21.431,17.184,21.418,17.163,21.402,17.163"/>
	<path clip-path="url(#SVGID_2_)" fill="#E30613" d="M2.632,9.365h7.697c0.376,0,0.713-0.176,0.932-0.449
		c0.071-0.09-0.005-0.22-0.118-0.199c-1.052,0.191-1.991,0.054-2.798-0.409c-0.771-0.441-1.291-1.105-1.631-1.71
		c-0.102-0.18-0.363-0.18-0.465,0c-0.339,0.604-0.86,1.269-1.63,1.71c-0.809,0.462-1.748,0.6-2.799,0.409
		C1.706,8.697,1.63,8.828,1.701,8.917C1.919,9.189,2.255,9.365,2.632,9.365"/>
	<path clip-path="url(#SVGID_2_)" fill="#E30613" d="M9.281,12.516H3.679c-1.033,0.482-2.223,0.573-3.546,0.271
		c-0.087-0.021-0.161,0.067-0.124,0.147c0.26,0.567,0.832,0.96,1.494,0.96h9.953c0.662,0,1.235-0.393,1.494-0.96
		c0.037-0.08-0.037-0.168-0.124-0.147C11.504,13.089,10.314,12.999,9.281,12.516"/>
	<rect x="3.75" y="10.061" clip-path="url(#SVGID_2_)" fill="#E30613" width="5.461" height="1.758"/>
	<path clip-path="url(#SVGID_2_)" fill="#E30613" d="M2.84,20h0.527c0.106,0,0.191-0.086,0.191-0.192v-5.272h-0.91v5.272
		C2.648,19.915,2.734,20,2.84,20"/>
	<path clip-path="url(#SVGID_2_)" fill="#E30613" d="M4.447,20h4.067c0.106,0,0.192-0.086,0.192-0.192v-5.272H4.255v5.272
		C4.255,19.915,4.341,20,4.447,20"/>
	<path clip-path="url(#SVGID_2_)" fill="#E30613" d="M10.12,20H9.594c-0.106,0-0.192-0.086-0.192-0.192v-5.272h0.91v5.272
		C10.313,19.915,10.226,20,10.12,20"/>
	<path clip-path="url(#SVGID_2_)" fill="#E30613" d="M14.603,5.091c0-1.242,1.007-2.247,2.248-2.247
		c1.242,0,2.248,1.005,2.248,2.247c0,1.241-1.006,2.248-2.248,2.248C15.61,7.338,14.603,6.332,14.603,5.091"/>
</g>
</svg>
