<?xml version="1.0" encoding="utf-8"?>
<!-- Generator: Adobe Illustrator 16.0.0, SVG Export Plug-In . SVG Version: 6.00 Build 0)  -->
<!DOCTYPE svg PUBLIC "-//W3C//DTD SVG 1.1//EN" "http://www.w3.org/Graphics/SVG/1.1/DTD/svg11.dtd">
<svg version="1.1" id="Calque_1" xmlns="http://www.w3.org/2000/svg" xmlns:xlink="http://www.w3.org/1999/xlink" x="0px" y="0px"
	 width="100px" height="100.001px" viewBox="0 0 100 100.001" enable-background="new 0 0 100 100.001" xml:space="preserve">
<g>
	<defs>
		<rect id="SVGID_1_" x="-99.156" y="-99.157" width="298.313" height="298.314"/>
	</defs>
	<clipPath id="SVGID_2_">
		<use xlink:href="#SVGID_1_"  overflow="visible"/>
	</clipPath>
	<path clip-path="url(#SVGID_2_)" fill="#FFFFFF" d="M57.895,52.629L57.895,52.629c-2.91,0-5.264,2.356-5.264,5.266
		c0,2.904,2.359,5.264,5.264,5.264s5.264-2.359,5.264-5.264C63.159,54.985,60.805,52.629,57.895,52.629 M42.105,47.369
		c2.906,0,5.263-2.358,5.263-5.264c0-2.908-2.357-5.263-5.263-5.263c-2.905,0-5.263,2.355-5.263,5.263
		C36.843,45.011,39.2,47.369,42.105,47.369 M57.895,36.842L57.895,36.842c-2.91,0-5.264,2.355-5.264,5.263
		c0,2.906,2.354,5.264,5.264,5.264c2.904,0,5.264-2.358,5.264-5.264C63.159,39.197,60.805,36.842,57.895,36.842 M63.159,10.526
		H36.843v10.526h26.316V10.526z M73.685,47.369c2.903,0,5.264-2.358,5.264-5.264c0-2.908-2.354-5.263-5.264-5.263
		c-2.91,0-5.263,2.355-5.263,5.263C68.422,45.011,70.781,47.369,73.685,47.369 M73.685,63.158c2.903,0,5.264-2.359,5.264-5.264
		c0-2.909-2.354-5.263-5.264-5.263c-2.91,0-5.263,2.354-5.263,5.263C68.422,60.799,70.781,63.158,73.685,63.158 M42.105,63.158
		c2.906,0,5.263-2.359,5.263-5.264c0-2.909-2.355-5.266-5.263-5.266c-2.908,0-5.263,2.356-5.263,5.266
		C36.843,60.799,39.2,63.158,42.105,63.158 M26.316,78.948c2.905,0,5.264-2.36,5.264-5.263c0-2.91-2.358-5.264-5.264-5.264
		c-2.908,0-5.263,2.354-5.263,5.264C21.053,76.588,23.411,78.948,26.316,78.948 M89.474,10.526h-5.262v10.526h5.262v68.421H10.526
		V21.053h5.263V10.526h-5.263C4.713,10.526,0,15.237,0,21.053v68.419c0,5.816,4.713,10.529,10.526,10.529h78.947
		c5.814,0,10.527-4.713,10.527-10.529V21.053C100,15.237,95.288,10.526,89.474,10.526 M26.316,63.158
		c2.905,0,5.264-2.359,5.264-5.264c0-2.909-2.358-5.266-5.264-5.266c-2.908,0-5.263,2.356-5.263,5.266
		C21.053,60.799,23.411,63.158,26.316,63.158 M26.316,47.369c2.905,0,5.264-2.358,5.264-5.264c0-2.908-2.358-5.263-5.264-5.263
		c-2.908,0-5.263,2.355-5.263,5.263C21.053,45.011,23.411,47.369,26.316,47.369 M42.105,78.948c2.906,0,5.263-2.36,5.263-5.263
		c0-2.91-2.357-5.264-5.263-5.264c-2.905,0-5.263,2.354-5.263,5.264C36.843,76.588,39.2,78.948,42.105,78.948 M26.316,21.053
		c2.905,0,5.264-2.358,5.264-5.263V5.264C31.58,2.354,29.224,0,26.316,0c-2.905,0-5.263,2.354-5.263,5.263v10.526
		C21.053,18.695,23.411,21.053,26.316,21.053 M73.685,21.053c2.903,0,5.264-2.358,5.264-5.263V5.264c0-2.909-2.36-5.264-5.264-5.264
		c-2.91,0-5.263,2.354-5.263,5.263v10.526C68.422,18.695,70.781,21.053,73.685,21.053"/>
</g>
</svg>
