<?xml version="1.0" encoding="utf-8"?>
<!-- Generator: Adobe Illustrator 16.0.0, SVG Export Plug-In . SVG Version: 6.00 Build 0)  -->
<!DOCTYPE svg PUBLIC "-//W3C//DTD SVG 1.1//EN" "http://www.w3.org/Graphics/SVG/1.1/DTD/svg11.dtd">
<svg version="1.1" id="Calque_1" xmlns="http://www.w3.org/2000/svg" xmlns:xlink="http://www.w3.org/1999/xlink" x="0px" y="0px"
	 width="25px" height="25px" viewBox="0 0 25 25" enable-background="new 0 0 25 25" xml:space="preserve">
<path fill="#FFFFFF" d="M23.62,0H1.379C0.617,0,0,0.618,0,1.38v22.241C0,24.382,0.617,25,1.379,25h11.974v-9.682h-3.258v-3.773
	h3.258V8.764c0-3.229,1.972-4.988,4.853-4.988c1.379,0,2.565,0.103,2.911,0.149v3.375L19.119,7.3c-1.566,0-1.87,0.744-1.87,1.837
	v2.409h3.736l-0.486,3.773h-3.25V25h6.371c0.762,0,1.38-0.618,1.38-1.38V1.38C25,0.618,24.382,0,23.62,0z"/>
</svg>
