<?xml version="1.0" encoding="utf-8"?>
<!-- Generator: Adobe Illustrator 16.0.0, SVG Export Plug-In . SVG Version: 6.00 Build 0)  -->
<!DOCTYPE svg PUBLIC "-//W3C//DTD SVG 1.1//EN" "http://www.w3.org/Graphics/SVG/1.1/DTD/svg11.dtd">
<svg version="1.1" id="Calque_1" xmlns="http://www.w3.org/2000/svg" xmlns:xlink="http://www.w3.org/1999/xlink"
	 width="115px" height="113px" viewBox="0 0 114.999 113" enable-background="new 0 0 114.999 113" xml:space="preserve">
<g>
	<path fill="#FFFFFF" d="M0,104.555C0,109.211,3.791,113,8.45,113h95.329c4.659,0,8.45-3.789,8.45-8.445v-4.973H0V104.555z"/>
	<path fill="#FFFFFF" d="M14.85,41.25h24.594c0.824,0,1.597-0.322,2.177-0.905c0.551-0.555,0.853-1.283,0.847-2.048l-0.001-0.113
		c-0.042-2.222-0.97-4.319-2.615-5.899c-1.647-1.583-3.797-2.431-6.019-2.384c-1.187,0.024-2.333,0.292-3.405,0.793
		c-0.807,0.378-1.743,0.362-2.537-0.043c-0.793-0.406-1.355-1.154-1.522-2.029c-0.398-2.094-2.238-3.614-4.373-3.614
		c-2.456,0-4.455,1.998-4.455,4.453c0,1.593-1.292,2.884-2.886,2.884c-2.411,0-4.409,1.959-4.454,4.367
		c-0.022,1.148,0.431,2.253,1.274,3.111C12.368,40.729,13.597,41.25,14.85,41.25"/>
	<path fill="#FFFFFF" d="M33.61,62.338c-1.625-1.149-2.903-3.628-3.82-5.515c-1.481-3.047-1.74-6.62-1.523-9.806h-5.011
		c-1.308,6.477-2.096,16.41,2.825,23.836C27.637,68.313,31.014,64.809,33.61,62.338"/>
	<path fill="#FFFFFF" d="M107.068,10.813c-1.594,0-2.886-1.292-2.886-2.884c0-4.372-3.559-7.929-7.933-7.929
		c-3.802,0-7.076,2.707-7.786,6.436c-0.166,0.875-0.728,1.624-1.521,2.029c-0.794,0.405-1.73,0.421-2.536,0.043
		c-1.755-0.821-3.629-1.258-5.571-1.297c-0.094-0.002-0.188-0.003-0.281-0.003c-3.555,0-6.941,1.377-9.563,3.897
		c-2.686,2.582-4.203,6.013-4.272,9.661l-0.003,0.173c-0.009,1.498,0.575,2.915,1.647,3.994c1.113,1.119,2.597,1.736,4.178,1.736
		h36.244c2.211,0,4.378-0.916,5.945-2.513c1.502-1.529,2.308-3.506,2.269-5.568C114.919,14.301,111.36,10.813,107.068,10.813"/>
	<path fill="#FFFFFF" d="M93.97,32.437h-6.355c-0.504,5.493-2.612,11.55-8.55,15.639c-9.589,6.604-16.186,7.762-22.005,8.784
		c-6.374,1.119-11.879,2.086-20.833,10.609c-10.295,9.8-9.651,21.134-8.87,25.641h45.55c-2.222-3.631-4.523-9.037-4.103-15.447
		c0.538-8.213,5.346-15.822,14.288-22.618C90.007,49.788,93.678,41.379,93.97,32.437"/>
</g>
</svg>
