<?xml version="1.0" encoding="utf-8"?>
<!-- Generator: Adobe Illustrator 16.0.0, SVG Export Plug-In . SVG Version: 6.00 Build 0)  -->
<!DOCTYPE svg PUBLIC "-//W3C//DTD SVG 1.1//EN" "http://www.w3.org/Graphics/SVG/1.1/DTD/svg11.dtd">
<svg version="1.1" id="Calque_1" xmlns="http://www.w3.org/2000/svg" xmlns:xlink="http://www.w3.org/1999/xlink" x="0px" y="0px"
	 width="24.61px" height="20px" viewBox="243.695 246.001 24.61 20" enable-background="new 243.695 246.001 24.61 20"
	 xml:space="preserve">
<path id="twitter-icon" fill="#e30613" d="M268.305,248.369c-0.905,0.401-1.878,0.673-2.899,0.795
	c1.042-0.625,1.843-1.615,2.22-2.793c-0.976,0.579-2.056,0.999-3.206,1.225c-0.921-0.981-2.233-1.594-3.686-1.594
	c-3.259,0-5.655,3.042-4.918,6.199c-4.197-0.21-7.917-2.221-10.407-5.275c-1.322,2.269-0.686,5.239,1.563,6.741
	c-0.827-0.026-1.606-0.253-2.287-0.632c-0.054,2.339,1.622,4.527,4.05,5.015c-0.71,0.193-1.489,0.238-2.28,0.086
	c0.642,2.007,2.507,3.466,4.717,3.507c-2.123,1.663-4.797,2.406-7.476,2.092c2.235,1.432,4.889,2.268,7.74,2.268
	c9.374,0,14.67-7.918,14.351-15.019C266.772,250.27,267.628,249.381,268.305,248.369z"/>
</svg>
