<?xml version="1.0" encoding="utf-8"?>
<!-- Generator: Adobe Illustrator 16.0.0, SVG Export Plug-In . SVG Version: 6.00 Build 0)  -->
<!DOCTYPE svg PUBLIC "-//W3C//DTD SVG 1.1//EN" "http://www.w3.org/Graphics/SVG/1.1/DTD/svg11.dtd">
<svg version="1.1" id="Calque_1" xmlns="http://www.w3.org/2000/svg" xmlns:xlink="http://www.w3.org/1999/xlink"
	 width="106px" height="100px" viewBox="0 0 106 100" enable-background="new 0 0 106 100" xml:space="preserve">
<path fill="#FFFFFF" d="M39.715,54.122v-4.363c-2.438-1.657-4.745-3.627-6.869-5.962c-6.159,5.936-12.054,9.691-12.72,10.117
	l-0.559,0.344l-3.396-5.409l0.555-0.354c0.067-0.047,6.067-3.84,12.128-9.766c-5.563-8.092-7.701-16.244-7.785-16.599l-0.159-0.621
	l6.199-1.589l0.152,0.627c0.014,0.071,1.779,6.594,6.074,13.312c4.245-5.149,6.72-10.113,7.349-14.79H14.65v-6.944H29V8.261h6.69
	v3.857h14.35v6.951h-2.885c-0.673,6.502-3.984,13.241-9.865,20.047c0.792,0.884,1.603,1.694,2.425,2.467v-0.449v-2.818
	c0-2.325,1.884-4.205,4.21-4.205h18.737V1.053c0-0.581-0.46-1.053-1.056-1.053H1.051C0.47,0,0,0.473,0,1.053v60.412
	c0,0.587,0.47,1.053,1.051,1.053h38.664V54.122z"/>
<path fill="#FFFFFF" d="M74.303,55.965h-0.115c-0.581,2.301-1.149,5.217-1.785,7.45l-2.3,8.2h8.563l-2.407-8.2
	C75.567,61.12,74.871,58.259,74.303,55.965"/>
<path fill="#FFFFFF" d="M104.95,37.486H44.399c-0.582,0-1.055,0.469-1.055,1.049v60.418c0,0.58,0.473,1.046,1.055,1.046h60.551
	c0.59,0,1.05-0.466,1.05-1.046V38.536C106,37.962,105.54,37.486,104.95,37.486 M82.92,88.068l-2.982-9.928H68.852l-2.768,9.928
	h-9.07l11.838-38.633h11.478l12.007,38.633H82.92z"/>
<polygon fill="#FFFFFF" points="27.255,65.163 18.841,65.163 18.841,79.119 25.808,86.003 41.46,86.003 41.46,77.607 27.255,77.607 
	"/>
</svg>
