<?xml version="1.0" encoding="utf-8"?>
<!-- Generator: Adobe Illustrator 16.0.0, SVG Export Plug-In . SVG Version: 6.00 Build 0)  -->
<!DOCTYPE svg PUBLIC "-//W3C//DTD SVG 1.1//EN" "http://www.w3.org/Graphics/SVG/1.1/DTD/svg11.dtd">
<svg version="1.1" id="Calque_1" xmlns="http://www.w3.org/2000/svg" xmlns:xlink="http://www.w3.org/1999/xlink" x="0px" y="0px"
	 width="150px" height="124px" viewBox="0 0 150 124" enable-background="new 0 0 150 124" xml:space="preserve">
<g>
	<path fill="#E30613" d="M149.65,33.872c0.005-0.008,0.011-0.014,0.016-0.021c0.01-0.016,0.017-0.032,0.026-0.047
		c0.022-0.039,0.045-0.077,0.065-0.117c0.014-0.027,0.026-0.054,0.038-0.08c0.018-0.038,0.034-0.076,0.05-0.115
		c0.013-0.031,0.023-0.062,0.034-0.093c0.012-0.036,0.023-0.071,0.034-0.107c0.01-0.036,0.018-0.071,0.027-0.107
		c0.007-0.033,0.014-0.065,0.02-0.099c0.008-0.041,0.014-0.081,0.019-0.121c0.004-0.03,0.008-0.061,0.011-0.091
		c0.003-0.043,0.005-0.087,0.007-0.131c0-0.019,0.004-0.037,0.004-0.056c0-0.011-0.002-0.022-0.002-0.033
		c-0.002-0.042-0.004-0.083-0.008-0.124c-0.002-0.034-0.004-0.067-0.008-0.1c-0.005-0.034-0.011-0.068-0.016-0.102
		c-0.007-0.039-0.013-0.078-0.021-0.116c-0.006-0.028-0.014-0.055-0.021-0.082c-0.011-0.042-0.021-0.084-0.034-0.125
		c-0.009-0.025-0.019-0.05-0.027-0.075c-0.016-0.042-0.03-0.083-0.048-0.123c-0.012-0.027-0.026-0.054-0.039-0.082
		c-0.018-0.035-0.034-0.071-0.054-0.105c-0.018-0.033-0.038-0.064-0.058-0.097c-0.018-0.027-0.033-0.055-0.052-0.08
		c-0.024-0.035-0.051-0.069-0.077-0.103c-0.017-0.022-0.033-0.044-0.051-0.066c-0.027-0.033-0.057-0.063-0.086-0.094
		c-0.02-0.021-0.039-0.043-0.061-0.064c-0.026-0.026-0.056-0.051-0.086-0.077c-0.026-0.023-0.052-0.047-0.079-0.069
		c-0.025-0.02-0.052-0.039-0.078-0.058c-0.034-0.025-0.068-0.05-0.104-0.073c-0.009-0.006-0.017-0.013-0.026-0.018l-18.787-11.726
		c-0.013-0.008-0.025-0.014-0.039-0.022c-0.025-0.016-0.052-0.031-0.078-0.046c-0.017-0.009-0.033-0.017-0.049-0.025
		c-0.026-0.014-0.054-0.026-0.081-0.038c-0.021-0.01-0.042-0.021-0.064-0.03c-0.015-0.006-0.03-0.012-0.046-0.018
		c-0.035-0.014-0.071-0.027-0.107-0.039c-0.014-0.004-0.026-0.01-0.04-0.014c-0.004-0.001-0.008-0.002-0.012-0.003
		c-0.012-0.004-0.025-0.007-0.038-0.011c-0.042-0.012-0.084-0.022-0.126-0.032c-0.017-0.004-0.032-0.009-0.048-0.012
		c-0.011-0.002-0.021-0.002-0.032-0.004c-0.043-0.008-0.086-0.015-0.129-0.021c-0.03-0.003-0.062-0.007-0.093-0.01
		c-0.037-0.003-0.075-0.005-0.113-0.006c-0.036-0.001-0.072-0.002-0.108-0.001c-0.032,0-0.064,0.002-0.098,0.004
		c-0.013,0.001-0.026,0.001-0.039,0.002c-0.009,0-0.017,0-0.025,0.001c-0.018,0.001-0.035,0.005-0.053,0.007
		c-0.03,0.003-0.061,0.008-0.091,0.013c-0.01,0.001-0.021,0.002-0.03,0.004c-0.013,0.003-0.026,0.003-0.04,0.006
		c-0.017,0.003-0.032,0.008-0.048,0.011c-0.03,0.007-0.061,0.015-0.091,0.022c-0.037,0.01-0.074,0.02-0.111,0.032
		c-0.032,0.01-0.064,0.021-0.097,0.033c-0.023,0.009-0.047,0.016-0.069,0.025c-0.01,0.004-0.019,0.009-0.028,0.013
		c-0.035,0.014-0.068,0.03-0.102,0.047c-0.022,0.011-0.047,0.021-0.069,0.033c-0.002,0.001-0.005,0.002-0.007,0.004l-33.63,17.912
		l-19.991-24.4c-0.001-0.001-0.002-0.002-0.003-0.003c-0.006-0.008-0.013-0.015-0.019-0.022c-0.016-0.019-0.033-0.036-0.049-0.053
		c-0.031-0.035-0.062-0.07-0.096-0.102c-0.02-0.019-0.041-0.037-0.061-0.054c-0.032-0.029-0.063-0.059-0.097-0.086
		c-0.032-0.025-0.066-0.049-0.099-0.073c-0.002-0.001-0.005-0.004-0.008-0.005c-0.022-0.016-0.043-0.033-0.065-0.048
		c-0.034-0.022-0.07-0.042-0.105-0.062c-0.026-0.016-0.053-0.032-0.08-0.047c-0.033-0.017-0.067-0.032-0.102-0.046
		c-0.031-0.015-0.062-0.03-0.094-0.043c-0.03-0.012-0.062-0.022-0.093-0.033c-0.038-0.013-0.074-0.027-0.112-0.038
		c-0.005-0.001-0.009-0.004-0.014-0.005c-0.033-0.01-0.067-0.016-0.1-0.023c-0.03-0.007-0.061-0.015-0.091-0.021
		c-0.013-0.002-0.025-0.005-0.039-0.008L7.285,0.033C7.264,0.029,7.242,0.028,7.22,0.025C7.181,0.019,7.141,0.014,7.102,0.01
		C7.066,0.006,7.029,0.005,6.994,0.003C6.959,0.002,6.925,0,6.89,0C6.851,0,6.812,0.002,6.773,0.004
		C6.742,0.006,6.709,0.008,6.678,0.011C6.638,0.015,6.599,0.02,6.561,0.026c-0.033,0.005-0.064,0.01-0.097,0.017
		C6.427,0.05,6.391,0.059,6.355,0.068C6.321,0.077,6.287,0.086,6.253,0.097c-0.034,0.01-0.067,0.021-0.1,0.033
		C6.119,0.143,6.084,0.156,6.05,0.17C6.019,0.183,5.988,0.198,5.956,0.212C5.923,0.229,5.89,0.245,5.857,0.262
		C5.825,0.28,5.793,0.298,5.763,0.316C5.733,0.334,5.704,0.353,5.675,0.372c-0.034,0.023-0.067,0.047-0.1,0.072
		C5.558,0.456,5.54,0.467,5.523,0.481C5.515,0.487,5.509,0.494,5.5,0.5C5.468,0.527,5.437,0.556,5.405,0.585
		C5.382,0.606,5.359,0.627,5.337,0.648C5.31,0.677,5.284,0.707,5.256,0.736C5.234,0.76,5.212,0.785,5.191,0.81
		c-0.023,0.029-0.045,0.06-0.067,0.09C5.104,0.927,5.083,0.955,5.063,0.983c-0.02,0.03-0.038,0.062-0.057,0.093
		c-0.018,0.03-0.037,0.06-0.053,0.091C4.938,1.199,4.923,1.231,4.908,1.263c-0.016,0.033-0.032,0.066-0.046,0.1
		C4.849,1.394,4.839,1.426,4.827,1.458C4.814,1.494,4.801,1.531,4.79,1.567C4.781,1.598,4.773,1.63,4.766,1.661
		c-0.01,0.04-0.02,0.08-0.027,0.12C4.736,1.792,4.733,1.801,4.731,1.812C4.727,1.833,4.726,1.855,4.723,1.877
		C4.717,1.917,4.711,1.955,4.708,1.994C4.704,2.031,4.703,2.067,4.701,2.103C4.7,2.137,4.698,2.172,4.698,2.206
		c0,0.039,0.002,0.077,0.004,0.116c0.002,0.033,0.004,0.065,0.007,0.098c0.004,0.039,0.009,0.077,0.015,0.115
		C4.729,2.567,4.735,2.6,4.742,2.632C4.75,2.668,4.757,2.705,4.767,2.74c0.009,0.034,0.019,0.068,0.029,0.103
		c0.01,0.033,0.021,0.065,0.033,0.098c0.013,0.035,0.026,0.07,0.04,0.104c0.013,0.032,0.027,0.063,0.042,0.093
		c0.016,0.034,0.032,0.067,0.05,0.1C4.978,3.27,4.996,3.3,5.015,3.332c0.018,0.03,0.036,0.06,0.056,0.088
		c0.022,0.034,0.047,0.066,0.071,0.099c0.013,0.018,0.024,0.036,0.038,0.053l14.047,17.534H2.202c-0.02,0-0.039,0.002-0.059,0.003
		c-0.04,0.001-0.08,0.003-0.121,0.006c-0.036,0.003-0.071,0.007-0.106,0.011c-0.034,0.004-0.068,0.01-0.103,0.016
		c-0.039,0.007-0.077,0.015-0.114,0.024c-0.031,0.007-0.062,0.015-0.092,0.023C1.568,21.2,1.53,21.211,1.492,21.225
		c-0.03,0.01-0.059,0.021-0.088,0.032c-0.036,0.014-0.071,0.029-0.106,0.045c-0.031,0.014-0.063,0.028-0.093,0.044
		c-0.032,0.016-0.063,0.033-0.093,0.05c-0.033,0.019-0.064,0.038-0.096,0.058c-0.027,0.018-0.054,0.036-0.08,0.054
		c-0.032,0.022-0.064,0.046-0.095,0.071c-0.025,0.02-0.05,0.04-0.074,0.061c-0.029,0.025-0.058,0.051-0.086,0.077
		c-0.025,0.024-0.05,0.049-0.074,0.075s-0.047,0.051-0.071,0.078c-0.027,0.031-0.052,0.063-0.077,0.096
		c-0.012,0.015-0.025,0.029-0.037,0.045C0.415,22.021,0.41,22.03,0.403,22.04c-0.025,0.036-0.048,0.072-0.072,0.109
		c-0.015,0.025-0.032,0.05-0.046,0.076c-0.021,0.036-0.039,0.073-0.057,0.111C0.215,22.364,0.2,22.392,0.187,22.42
		c-0.015,0.035-0.028,0.07-0.042,0.105c-0.012,0.033-0.025,0.065-0.036,0.099c-0.011,0.032-0.02,0.066-0.028,0.1
		c-0.01,0.037-0.021,0.073-0.029,0.11c-0.007,0.031-0.011,0.063-0.017,0.094c-0.007,0.041-0.014,0.082-0.019,0.123
		c-0.003,0.03-0.005,0.06-0.007,0.09c-0.003,0.042-0.006,0.086-0.006,0.129C0.001,23.281,0,23.292,0,23.304
		c0,0.02,0.002,0.039,0.003,0.059c0.001,0.041,0.002,0.081,0.006,0.122c0.003,0.035,0.007,0.07,0.011,0.105
		c0.004,0.035,0.01,0.069,0.016,0.103c0.006,0.039,0.015,0.077,0.023,0.115c0.007,0.031,0.015,0.061,0.023,0.091
		c0.011,0.039,0.022,0.077,0.036,0.115c0.01,0.03,0.021,0.06,0.033,0.089c0.014,0.036,0.029,0.071,0.045,0.105
		c0.014,0.031,0.029,0.063,0.045,0.094c0.016,0.031,0.032,0.062,0.048,0.091c0.019,0.033,0.04,0.066,0.06,0.098
		c0.017,0.027,0.035,0.053,0.053,0.079c0.023,0.032,0.047,0.064,0.072,0.096c0.02,0.025,0.04,0.049,0.06,0.073
		c0.026,0.029,0.052,0.058,0.079,0.086c0.024,0.025,0.049,0.049,0.075,0.074c0.026,0.024,0.051,0.047,0.078,0.07
		c0.031,0.027,0.063,0.052,0.096,0.077c0.015,0.012,0.029,0.025,0.046,0.037l50.578,36.734l-9.185,59.622
		c-0.001,0.008-0.002,0.015-0.003,0.021l-0.001,0.008c-0.001,0.009-0.001,0.018-0.003,0.026c-0.009,0.063-0.016,0.125-0.019,0.187
		c-0.001,0.024,0,0.049-0.001,0.073c-0.001,0.047-0.002,0.094,0,0.14c0.001,0.036,0.005,0.072,0.009,0.107
		c0.003,0.034,0.005,0.068,0.01,0.103c0.006,0.042,0.015,0.083,0.022,0.124c0.006,0.028,0.01,0.056,0.017,0.083
		c0.01,0.042,0.022,0.083,0.035,0.124c0.008,0.026,0.015,0.054,0.024,0.08c0.013,0.038,0.028,0.075,0.044,0.113
		c0.012,0.028,0.022,0.058,0.036,0.086c0.015,0.032,0.031,0.063,0.047,0.095c0.017,0.032,0.034,0.065,0.053,0.098
		c0.015,0.026,0.032,0.051,0.047,0.076c0.022,0.035,0.045,0.07,0.069,0.104c0.016,0.021,0.032,0.041,0.048,0.062
		c0.027,0.035,0.055,0.07,0.084,0.104c0.018,0.021,0.037,0.039,0.055,0.059c0.03,0.031,0.06,0.063,0.092,0.094
		c0.024,0.021,0.049,0.043,0.074,0.064c0.028,0.024,0.056,0.049,0.086,0.071c0.036,0.028,0.074,0.055,0.112,0.08
		c0.021,0.014,0.041,0.029,0.062,0.042c0.053,0.033,0.108,0.064,0.165,0.094c0.008,0.004,0.015,0.009,0.023,0.013
		c0.001,0,0.002,0,0.002,0.001c0.075,0.036,0.151,0.069,0.23,0.098c0.02,0.007,0.04,0.012,0.06,0.019
		c0.054,0.018,0.108,0.035,0.165,0.049c0.037,0.009,0.074,0.016,0.111,0.022c0.027,0.006,0.054,0.013,0.082,0.018
		c0.009,0.001,0.019,0.001,0.028,0.002C44.267,123.99,44.368,124,44.47,124c0.001,0,0.002,0,0.003,0h0.001
		c0.091,0,0.181-0.008,0.27-0.019c0.018-0.003,0.036-0.005,0.053-0.007c0.182-0.027,0.357-0.077,0.523-0.146
		c0.016-0.007,0.032-0.013,0.048-0.021c0.081-0.035,0.159-0.074,0.234-0.12c0.014-0.008,0.026-0.018,0.04-0.025
		c0.063-0.04,0.125-0.083,0.184-0.129c0.018-0.014,0.035-0.027,0.052-0.041c0.065-0.055,0.127-0.113,0.187-0.175
		c0.015-0.016,0.029-0.031,0.043-0.048c0.059-0.065,0.116-0.134,0.167-0.206c0.001-0.002,0.003-0.004,0.005-0.006
		c0.055-0.08,0.104-0.165,0.149-0.252c0.003-0.008,0.008-0.014,0.012-0.021l16.081-32.118L115.8,67.533
		c0.014-0.006,0.027-0.014,0.041-0.021c0.043-0.02,0.084-0.04,0.126-0.063c0.004-0.002,0.008-0.004,0.012-0.006
		c0.007-0.003,0.014-0.006,0.021-0.01c0.016-0.008,0.029-0.018,0.045-0.026c0.033-0.02,0.065-0.04,0.098-0.062
		c0.021-0.015,0.043-0.027,0.063-0.042c0.008-0.006,0.015-0.013,0.023-0.019c0.023-0.018,0.047-0.036,0.07-0.055
		c0.006-0.004,0.012-0.007,0.018-0.012s0.011-0.01,0.016-0.015c0.021-0.018,0.041-0.035,0.061-0.053s0.038-0.035,0.057-0.054
		c0.001-0.001,0.002-0.002,0.004-0.003c0.008-0.008,0.017-0.015,0.025-0.023c0.006-0.006,0.012-0.013,0.018-0.019
		c0.015-0.015,0.029-0.03,0.043-0.046c0.019-0.021,0.036-0.04,0.054-0.062c0.017-0.019,0.033-0.038,0.05-0.059
		c0.01-0.012,0.018-0.023,0.027-0.035c0.008-0.01,0.016-0.019,0.022-0.028c0.008-0.011,0.015-0.021,0.022-0.032
		c0.002-0.004,0.004-0.007,0.006-0.01c0.018-0.024,0.035-0.048,0.051-0.073c0.005-0.007,0.01-0.015,0.015-0.022
		c0.018-0.027,0.033-0.056,0.049-0.083c0.015-0.026,0.03-0.052,0.044-0.079c0.001-0.001,0.002-0.002,0.002-0.004
		c0.003-0.004,0.005-0.008,0.007-0.013c0.016-0.031,0.03-0.063,0.044-0.096c0.012-0.026,0.024-0.053,0.035-0.08
		c0.002-0.004,0.004-0.009,0.006-0.013c0.014-0.035,0.024-0.07,0.036-0.106c0.002-0.005,0.004-0.01,0.005-0.015
		c0.002-0.007,0.006-0.012,0.008-0.019l0.009-0.028c0-0.001,0-0.001,0.001-0.002l9.887-31.266h20.874c0.001,0,0.003,0,0.004,0
		c0.005,0,0.01-0.001,0.015-0.001c0.083,0,0.162-0.006,0.241-0.015c0.022-0.003,0.044-0.007,0.066-0.01
		c0.063-0.009,0.127-0.021,0.188-0.036c0.023-0.005,0.046-0.011,0.068-0.018c0.063-0.017,0.124-0.037,0.186-0.06
		c0.02-0.007,0.039-0.013,0.059-0.021c0.078-0.031,0.156-0.066,0.23-0.106c0.001,0,0.003-0.002,0.005-0.003
		c0.07-0.039,0.138-0.082,0.203-0.127c0.024-0.017,0.048-0.036,0.072-0.054c0.043-0.033,0.085-0.068,0.125-0.104
		c0.024-0.021,0.048-0.042,0.071-0.063c0.054-0.052,0.105-0.107,0.154-0.165c0.005-0.006,0.011-0.012,0.017-0.019
		C149.553,34.016,149.603,33.945,149.65,33.872 M125.289,25.434l-11.24,35.545L97.189,40.401L125.289,25.434z M12.275,5.39
		l57.329,10.223l-16.38,40.894L12.275,5.39z M109.958,62.931l-52.936-4.066l16.288-40.666L109.958,62.931z M62.416,85.918
		l-5.674-22.665l49.174,3.777L62.416,85.918z M58.577,88.713l-9.793,19.562l5.596-36.328L58.577,88.713z M41.916,49.43L8.972,25.503
		h13.777L41.916,49.43z M130.255,24.328l9.867,6.159h-11.814L130.255,24.328z"/>
</g>
</svg>
