<?xml version="1.0" encoding="utf-8"?>
<!-- Generator: Adobe Illustrator 16.0.0, SVG Export Plug-In . SVG Version: 6.00 Build 0)  -->
<!DOCTYPE svg PUBLIC "-//W3C//DTD SVG 1.1//EN" "http://www.w3.org/Graphics/SVG/1.1/DTD/svg11.dtd">
<svg version="1.1" id="Calque_1" xmlns="http://www.w3.org/2000/svg" xmlns:xlink="http://www.w3.org/1999/xlink" x="0px" y="0px"
	 width="124px" height="133px" viewBox="0 0 124 133" enable-background="new 0 0 124 133" xml:space="preserve">
<g>
	<polygon fill="#FFFFFF" points="47.384,0 63.55,16.053 77.406,0 	"/>
	<rect x="35.212" y="52.269" fill="#FFFFFF" width="53.576" height="23.868"/>
	<g>
		<path fill="#FFFFFF" d="M35.212,45.736h2.717l21.326-24.707L38.792,0.709l-8.787,4.362c-2.195,1.091-4.066,2.73-5.427,4.758
			L1.028,44.906c-1.637,2.438-1.293,5.701,0.843,7.722c4.777,4.517,13.37,10.822,26.761,14.569V34.205
			c0-1.79,1.388-3.349,3.189-3.402c1.863-0.056,3.391,1.427,3.391,3.265L35.212,45.736L35.212,45.736z"/>
		<path fill="#FFFFFF" d="M93.995,5.071l-8.61-4.275l-38.791,44.94h42.195V34.205c0-1.79,1.388-3.349,3.188-3.402
			c1.863-0.056,3.391,1.427,3.391,3.265v33.129c13.389-3.746,21.981-10.05,26.76-14.569c2.138-2.021,2.48-5.285,0.844-7.723
			L99.423,9.829C98.062,7.801,96.19,6.162,93.995,5.071"/>
		<path fill="#FFFFFF" d="M41.829,133h40.342c3.655,0,6.618-2.943,6.618-6.572V82.67H35.212v43.758
			C35.212,130.057,38.175,133,41.829,133"/>
	</g>
</g>
</svg>
