<?xml version="1.0" standalone="no"?>
<!DOCTYPE svg PUBLIC "-//W3C//DTD SVG 20010904//EN"
 "http://www.w3.org/TR/2001/REC-SVG-20010904/DTD/svg10.dtd">
<svg version="1.0" xmlns="http://www.w3.org/2000/svg"
 width="260.000000pt" height="260.000000pt" viewBox="0 0 260.000000 260.000000"
 preserveAspectRatio="xMidYMid meet">
<metadata>
Created by potrace 1.11, written by Peter Selinger 2001-2013
</metadata>
<g transform="translate(0.000000,260.000000) scale(0.100000,-0.100000)"
fill="#000000" stroke="none">
<path d="M1780 2559 c-94 -44 -219 -130 -272 -187 -101 -108 -146 -270 -123
-443 10 -80 15 -85 64 -71 22 7 62 29 88 49 26 20 82 62 123 94 132 99 191
178 225 302 16 55 21 146 11 195 -10 45 -30 92 -41 92 -5 0 -39 -14 -75 -31z"/>
<path d="M1043 2234 l-42 -35 26 -47 c81 -147 216 -303 314 -363 21 -13 39
-27 39 -30 0 -9 -67 5 -140 31 -128 44 -281 37 -392 -18 l-57 -28 -33 31 c-56
52 -106 85 -126 85 -14 0 -25 -12 -36 -40 -16 -40 -17 -40 -40 -25 -32 21 -63
26 -74 12 -31 -40 -46 -214 -28 -329 6 -42 5 -47 -11 -44 -63 12 -303 -97
-303 -136 0 -7 11 -24 25 -38 l26 -27 -24 -16 c-14 -9 -29 -30 -35 -46 -10
-28 -8 -33 20 -56 43 -36 121 -75 201 -100 l69 -21 0 -85 c0 -133 21 -220 56
-234 8 -3 27 1 42 8 26 13 28 13 44 -18 10 -18 28 -37 40 -43 14 -6 30 -29 41
-58 35 -96 137 -282 201 -367 114 -151 192 -197 338 -197 93 0 153 17 256 73
157 85 231 96 425 59 163 -30 253 -16 359 57 147 102 245 442 243 846 0 244
-39 433 -118 585 -47 91 -107 155 -208 221 -123 82 -253 110 -388 84 -90 -17
-145 -42 -243 -109 -45 -31 -91 -56 -103 -55 -20 0 -20 1 -3 8 16 6 12 13 -32
50 -94 78 -225 283 -263 412 -7 21 -15 39 -18 39 -3 0 -25 -16 -48 -36z"/>
</g>
</svg>
